<svg id="Layer_1" data-name="Layer 1" xmlns="http://www.w3.org/2000/svg" viewBox="0 0 132.55 198.36"><defs><style>.cls-1{fill:#010101;}</style></defs><path class="cls-1" d="M100,99.92c0-44,66.28-44,66.28,0S100,143.9,100,99.92ZM33.72,166.2a33.05,33.05,0,0,1,32.83-32.83H100V166.2c0,44-66.28,44-66.28,0ZM100,.82V67.09h32.83c44,0,44-66.27,0-66.27ZM33.72,33.65A33.05,33.05,0,0,0,66.55,66.48H100V.82H67.17C48.59.82,33.72,15.68,33.72,33.65Zm0,66.27a33,33,0,0,0,32.83,32.83H100V67.09H67.17C48.59,67.09,33.72,82,33.72,99.92Z" transform="translate(-33.72 -0.82)"/></svg>