<svg id="Layer_1" data-name="Layer 1" xmlns="http://www.w3.org/2000/svg" viewBox="0 0 197.35 197.35"><defs><style>.cls-1{fill:#010101;}</style></defs><path class="cls-1" d="M195,91.21,108.81,5.05a12.7,12.7,0,0,0-18,0L72.92,22.94l22.7,22.7a15.1,15.1,0,0,1,19.11,19.24l21.88,21.88c15.08-5.2,26.95,13.65,15.62,25-11.67,11.67-30.93-1.26-24.67-16.45L107.15,74.89v53.68c11.14,5.52,9.8,18.43,4,24.23a15.12,15.12,0,1,1-16.44-24.67V73.94C85.55,70.19,83.88,60.4,86.5,54.12L64.13,31.72,5.05,90.81a12.7,12.7,0,0,0,0,18L91.22,195a12.69,12.69,0,0,0,18,0L195,109.19a12.7,12.7,0,0,0,0-18Z" transform="translate(-1.32 -1.33)"/></svg>