<svg id="Layer_1" data-name="Layer 1" xmlns="http://www.w3.org/2000/svg" viewBox="0 0 198.23 184.06"><defs><style>.cls-1{fill:#010101;}</style></defs><path class="cls-1" d="M41.64,10.55a3.88,3.88,0,0,0-7.31,0L12.44,78.25h51.1S41.64,10.55,41.64,10.55ZM1.25,112.3A7.73,7.73,0,0,0,4,120.8L100,192,12.4,78.25Zm62.24-34L100,192,136.53,78.21h-73ZM198.77,112.3l-11.15-34L100,192l96-71.23A7.76,7.76,0,0,0,198.77,112.3Zm-33-101.75a3.88,3.88,0,0,0-7.31,0L136.53,78.21h51.09Z" transform="translate(-0.89 -7.97)"/></svg>