<svg id="Layer_1" data-name="Layer 1" xmlns="http://www.w3.org/2000/svg" viewBox="0 0 198.53 200"><defs><style>.cls-1{fill:#010101;}</style></defs><path class="cls-1" d="M178,0H22A21.35,21.35,0,0,0,.74,21.43V178.57A21.35,21.35,0,0,0,22,200H178a21.35,21.35,0,0,0,21.27-21.43V21.43A21.35,21.35,0,0,0,178,0ZM108.77,156c0,19.47-11.34,28.35-27.87,28.35-14.93,0-23.57-7.77-28-17.19l15.2-9.24c2.93,5.22,5.59,9.64,12,9.64,6.12,0,10-2.41,10-11.83V91.83h18.65V156Zm44.14,28.35c-17.33,0-28.54-8.3-34-19.2l15.2-8.84c4,6.57,9.22,11.43,18.39,11.43,7.71,0,12.68-3.88,12.68-9.28,0-6.43-5.06-8.71-13.61-12.5l-4.65-2c-13.47-5.76-22.38-13-22.38-28.35,0-14.11,10.68-24.82,27.3-24.82,11.87,0,20.38,4.15,26.5,15l-14.54,9.38c-3.19-5.76-6.65-8-12-8s-8.9,3.48-8.9,8c0,5.62,3.45,7.9,11.47,11.43l4.66,2c15.86,6.83,24.77,13.84,24.77,29.55,0,16.87-13.21,26.16-30.89,26.16Z" transform="translate(-0.74)"/></svg>