<svg id="Layer_1" data-name="Layer 1" xmlns="http://www.w3.org/2000/svg" viewBox="0 0 197.4 187.4"><defs><style>.cls-1{fill:#7253a2;}</style></defs><path class="cls-1" d="M138.08,137.18A14.11,14.11,0,0,0,136.57,109h-.5a14.06,14.06,0,0,0-13.57,14.57,14.43,14.43,0,0,0,4,9.3c-8.54,16.83-21.6,29.14-41.19,39.44a68,68,0,0,1-40.95,7.79c-11.3-1.51-20.1-6.54-25.62-14.83-8-12.31-8.79-25.62-2-38.93a59.14,59.14,0,0,1,17.08-20.1c-1-3.27-2.51-8.79-3.27-12.81C-5.86,119.85-2.09,155.52,9,172.35c8.29,12.56,25.12,20.35,43.71,20.35a62,62,0,0,0,15.07-1.76c32.16-6.28,56.52-25.38,70.34-53.76ZM182.29,106c-19.09-22.36-47.23-34.67-79.38-34.67h-4a13.8,13.8,0,0,0-12.31-7.53h-.5A14.07,14.07,0,0,0,86.58,92h.5a14.15,14.15,0,0,0,12.31-8.54h4.52a95.76,95.76,0,0,1,53.51,16.33C170,108,179,118.84,184.05,131.9c4.27,10.55,4,20.85-.51,29.65-7,13.31-18.84,20.59-34.41,20.59a64.31,64.31,0,0,1-24.62-5.27c-2.76,2.51-7.79,6.53-11.3,9,10.8,5,21.85,7.79,32.4,7.79,24.12,0,41.95-13.31,48.74-26.63,7.28-14.57,6.78-39.69-12.06-61ZM54.68,141.45A14.11,14.11,0,0,0,68.75,155h.5a14.07,14.07,0,0,0-.5-28.13h-.51a4.25,4.25,0,0,0-1.75.25A92.09,92.09,0,0,1,53.42,71.36c1-15.07,6-28.13,14.82-38.94,7.29-9.29,21.36-13.81,30.9-14.06,26.63-.51,37.93,32.65,38.69,46,3.26.75,8.79,2.51,12.56,3.77-3-40.7-28.14-61.8-52.25-61.8-22.61,0-43.46,16.33-51.75,40.44-11.56,32.16-4,63.06,10,87.42a11.29,11.29,0,0,0-1.76,7.29Z" transform="translate(-1.3 -6.3)"/></svg>