<svg id="Layer_1" data-name="Layer 1" xmlns="http://www.w3.org/2000/svg" viewBox="0 0 196.89 147.68"><defs><style>.cls-1{fill:#010101;}</style></defs><path class="cls-1" d="M94.41,137.81C94.32,138,94.23,138.14,94.41,137.81ZM171.06,111a40.36,40.36,0,0,0-17.85,4.16c-1.81-3.66-3.69-6.86-4-9.26a25.06,25.06,0,0,1-.33-7.79c.43-3.32,2.37-8,2.33-8.37s-.43-2-4.39-2.06-7.39.77-7.79,1.82a38.71,38.71,0,0,0-1.63,5.87c-.7,3.6-7.93,16.46-12,23.17-1.36-2.61-2.49-4.92-2.74-6.77a24.7,24.7,0,0,1-.34-7.78c.43-3.32,2.37-8,2.34-8.37s-.43-2-4.4-2.06-7.38.77-7.78,1.81-.83,3.51-1.63,5.88-10.43,23.78-13,29.35c-1.29,2.83-2.4,5.11-3.2,6.65l-.27.52c.09-.15.15-.31.15-.25-.68,1.33-1.08,2.06-1.08,2.06v0c-.52,1-1.1,1.87-1.38,1.87s-.58-2.58.09-6.12C93.64,128,97.05,116.4,97,116c0-.22.65-2.22-2.24-3.3a3.62,3.62,0,0,0-4.06.68c-.25,0-.44.62-.44.62s3.11-13-6-13c-5.66,0-13.54,6.22-17.41,11.85-2.43,1.32-7.69,4.18-13.23,7.23l-6.37,3.5c-.15-.15-.27-.3-.43-.46-11-11.75-31.34-20.06-30.47-35.84.3-5.75,2.3-20.86,39.09-39.19,30.15-15,54.25-10.89,58.4-1.73,6,13.08-12.88,37.41-44.19,40.92-11.94,1.32-18.21-3.29-19.78-5s-1.88-1.91-2.49-1.57c-1,.55-.37,2.15,0,3.1.92,2.44,4.77,6.74,11.32,8.9C64.51,94.52,78.5,95.57,95.42,89c19-7.33,33.8-27.72,29.46-44.8-4.41-17.35-33.19-23-60.39-13.38-16.21,5.75-33.74,14.8-46.35,26.58C3.16,71.45.76,83.66,1.75,88.77c3.5,18.12,28.47,29.93,38.47,38.67-.49.28-.95.52-1.38.77-5,2.49-24.06,12.46-28.82,23-5.39,11.94.89,20.49,5,21.66,12.86,3.57,26-2.86,33.09-13.41s6.22-24.34,3-30.61a2,2,0,0,0-.13-.25l3.94-2.31c2.55-1.51,5-2.89,7.23-4.09a48.06,48.06,0,0,0-2.59,13.11c-.55,6.76,2.25,15.53,5.88,19a6.46,6.46,0,0,0,4.74,1.54c4.24,0,6.15-3.51,8.27-7.69,2.61-5.11,4.92-11.05,4.92-11.05s-2.89,16.06,5,16.06c2.88,0,5.78-3.72,7.07-5.63v0s.06-.12.22-.37c.3-.46.46-.74.46-.74v-.09c1.17-2,3.72-6.58,7.56-14.15,5-9.78,9.75-22,9.75-22a61.59,61.59,0,0,0,1.91,7.94c.86,2.92,2.68,6.12,4.12,9.23-1.17,1.6-1.87,2.52-1.87,2.52a.06.06,0,0,0,0,.06c-.93,1.23-2,2.56-3,3.85-3.93,4.68-8.61,10-9.23,11.57-.74,1.81-.55,3.17.86,4.21,1,.8,2.89.92,4.83.77a21.52,21.52,0,0,0,7.23-1.66,25.23,25.23,0,0,0,6.21-3.26,13.87,13.87,0,0,0,6-12.25,25.39,25.39,0,0,0-2.25-8.67c.34-.49.71-1,1-1.54A163.59,163.59,0,0,0,140,104.3a62,62,0,0,0,1.9,7.94,53.47,53.47,0,0,0,3.51,7.9c-5.72,4.65-9.26,10-10.49,13.57-2.28,6.55-.49,9.51,2.86,10.18,1.51.31,3.66-.4,5.26-1.07a24.31,24.31,0,0,0,6.64-3.42c3.85-2.83,7.57-6.8,7.32-12.18a22.9,22.9,0,0,0-1.66-7.2c4.83-2,11.1-3.14,19.1-2.21,17.13,2,20.49,12.7,19.84,17.16s-4.25,7-5.44,7.69-1.57,1-1.48,1.57c.15.8.71.77,1.72.59,1.42-.25,9-3.63,9.32-11.91.49-10.46-9.56-22-27.38-21.87ZM39,155.56c-5.66,6.18-13.59,8.52-17,6.55-3.66-2.13-2.21-11.23,4.77-17.82a90.27,90.27,0,0,1,13.35-10l3.51-2.13L44,132c.28-.19.59-.34.9-.52A24.54,24.54,0,0,1,39,155.55Zm41.34-28.12c-2,4.83-6.12,17.14-8.65,16.49-2.15-.55-3.47-9.94-.43-19.17A42.41,42.41,0,0,1,78,112.43c3.11-3.48,6.52-4.59,7.32-3.2,1.08,1.81-3.75,15.2-5,18.21Zm34.15,16.31c-.83.43-1.6.7-2,.49s.34-.74.34-.74,4.27-4.58,6-6.68c1-1.23,2.13-2.67,3.35-4.27,0,.15,0,.31,0,.49,0,5.51-5.32,9.23-7.72,10.71Zm26.32-6c-.61-.43-.52-1.88,1.54-6.37a24,24,0,0,1,5.85-7.54,11,11,0,0,1,.58,3.32c0,6.93-5,9.51-8,10.59Z" transform="translate(-1.55 -26.16)"/></svg>