<svg id="Layer_1" data-name="Layer 1" xmlns="http://www.w3.org/2000/svg" viewBox="0 0 199.04 194.13"><defs><style>.cls-1{fill:#1b2023;fill-rule:evenodd;}</style></defs><path class="cls-1" d="M100,2.93a99.53,99.53,0,0,0-31.47,194c5,.87,6.84-2.12,6.84-4.73,0-2.36-.13-10.2-.13-18.54-25,4.61-31.47-6.09-33.46-11.69-1.12-2.86-6-11.69-10.2-14.06-3.48-1.86-8.46-6.47-.13-6.59,7.84-.13,13.44,7.21,15.31,10.2,9,15.05,23.26,10.82,29,8.21.87-6.47,3.48-10.82,6.35-13.31C59.94,143.88,36.8,135.3,36.8,97.23A38.77,38.77,0,0,1,47,70.48C46,68,42.53,57.79,48,44.11c0,0,8.33-2.61,27.37,10.2a93.8,93.8,0,0,1,49.76,0c19-12.94,27.37-10.2,27.37-10.2,5.47,13.68,2,23.89,1,26.37a38.49,38.49,0,0,1,10.2,26.75c0,38.19-23.26,46.65-45.4,49.14,3.6,3.11,6.72,9.08,6.72,18.41,0,13.31-.13,24-.13,27.37,0,2.61,1.87,5.72,6.84,4.73A99.58,99.58,0,0,0,100,2.93Z" transform="translate(-0.48 -2.93)"/></svg>