<svg id="Layer_1" data-name="Layer 1" xmlns="http://www.w3.org/2000/svg" viewBox="0 0 195.99 191.07"><defs><style>.cls-1{fill:#010101;}</style></defs><path class="cls-1" d="M2,4.47V195.53H198V4.47Zm8.14,8.14H189.81V187.35H10.15ZM70,112.65,63.5,137.13c-.13.7-.39.83-1.17.83h-12c-.83,0-1-.27-.83-1.18L72.69,55.55c.44-1.48.66-2.78.79-6.83,0-.57.3-.79.69-.79H91.29c.57,0,.83.13,1,.79l26,88.15c.17.65,0,1-.65,1H104.14c-.7,0-1.09-.17-1.22-.69l-6.75-24.61-26.18,0ZM92.77,99.37c-2.31-9-7.67-28.79-9.71-38.37h-.18c-1.74,9.54-6,25.69-9.4,38.37ZM129.53,54c0-5.27,3.66-8.37,8.36-8.37A8,8,0,0,1,146.25,54c0,5.4-3.52,8.36-8.53,8.36s-8.23-3-8.19-8.36Zm.91,18.55c0-.65.26-.91.92-.91h12.8c.74,0,1,.26,1,1V137c0,.65-.13.92-.95.92H131.58c-.83,0-1.09-.4-1.09-1.05V72.54Z" transform="translate(-2.01 -4.47)"/></svg>