<svg id="Layer_1" data-name="Layer 1" xmlns="http://www.w3.org/2000/svg" viewBox="0 0 197.51 189.2"><defs><style>.cls-1{fill:#010101;}</style></defs><path class="cls-1" d="M13.73,50.42c-17.26,25.29-15.41,58-1.85,84.49.62.62.62,1.23,1.24,1.85,0,.62.61.62.61,1.23a.61.61,0,0,0,.62.62c0,.62.62.62.62,1.24l1.23,2.46c0,.62.62.62.62,1.24A3.17,3.17,0,0,1,18.05,146c0,.62.62.62.62,1.24a6.18,6.18,0,0,1,2.47,3.08c.61.62,1.23,1.85,1.85,2.47A2.13,2.13,0,0,1,23.6,154l2.47,1.85c0,.62,0,.62.62,1.23.61,1.24,1.85,1.85,2.46,3.09h0l3.7,3.7,1.85,1.85.62.61a11,11,0,0,1,3.08,2.47h0l.62.62c.62.61,1.85,1.23,2.47,1.85l1.23.62,1.85,1.85,1.23.61c.62.62,1.85,1.24,2.47,1.85l.62.62h0l2.47,1.23,1.23.62a12.85,12.85,0,0,1,3.7,2.47c.62,0,.62.61,1.23.61A4.67,4.67,0,0,0,60,183a2.13,2.13,0,0,1,1.23.61c.62.62,1.24.62,1.85,1.24h.62a.6.6,0,0,1,.62.61c1.23.62,1.85,1.24,3.08,1.24H68a8.81,8.81,0,0,0,3.7,1.23.6.6,0,0,1,.61.62c1.24.61,2.47.61,3.7,1.23h.62c1.23.62,2.47.62,3.7,1.23H81c1.23.62,2.47.62,3.7,1.24,84.49,15.42,109.16-50.57,109.16-50.57-20.35,26.51-57.36,33.92-91.89,25.9a8.69,8.69,0,0,1-3.7-1.24,11.77,11.77,0,0,0-4.94-1.23h-.61c-1.24-.62-2.47-.62-3.09-1.23a.6.6,0,0,1-.61-.62,8.76,8.76,0,0,0-3.7-1.23.61.61,0,0,1-.62-.62c-1.23-.62-1.85-.62-3.08-1.23a.61.61,0,0,1-.62-.62c-.62-.62-1.24-.62-2.47-1.23a2.12,2.12,0,0,1-1.23-.62c-1.24-.62-1.85-1.23-3.09-1.23a2.12,2.12,0,0,0-1.23-.62,12.85,12.85,0,0,1-3.7-2.47c-.62,0-.62-.61-1.23-.61-.62-.62-1.85-1.24-2.47-1.85l-.62-.62c-.61-.62-1.85-1.23-2.46-1.85-.62,0-.62-.62-1.24-.62L59.37,146l-1.23-.61c-.62.61-1.23,0-2.47-1.24h-.61L52,141.7l-.61-.62-1.85-1.85L48.89,138l-2.47-2.46h0c-.62-1.24-1.85-1.85-2.47-3.09l-.61-.61-1.85-2.47a16.31,16.31,0,0,1-3.09-3.7C19.29,99.14,12.5,63.37,27.3,33.15ZM68,29.45C55.06,47.34,56.29,72,66.16,91.12l5.55,9.25c1.85,2.47,3.7,6.17,6.78,8,.62,1.24,1.85,1.85,3.09,3.09l.61.61c1.24.62,1.85,1.85,3.09,2.47h0c1.23,1.23,2.46,1.85,3.7,3.08l.61.62c1.24.62,2.47,1.85,3.7,2.47h0c.62.61,1.24.61,1.85,1.23l.62.62c.62.61,1.85,1.23,2.47,1.85h.61c.62.61,1.85.61,2.47,1.23a.61.61,0,0,1,.62.62c.61,0,1.23.61,1.85.61h0a14,14,0,0,1,3.08,1.85.61.61,0,0,1,.62.62c.61.62,1.85.62,2.46,1.23.62,0,.62,0,1.24.62a3.69,3.69,0,0,0,2.47.62l1.23.61c1.23.62,2.47.62,3.7,1.24,65.37,11.1,80.17-39.47,80.17-39.47-13.56,19.73-40.08,29-67.84,21.58-1.23-.61-2.46-.61-3.7-1.23-.61,0-.61,0-1.23-.62a3.75,3.75,0,0,0-2.47-.61l-1.23-.62c-1.23-.62-1.85-.62-2.47-1.23a.6.6,0,0,1-.61-.62L115.5,109l-1.85-.62-1.24-.61c-.62-.62-1.23-.62-2.47-1.24h-.61c-.62-.62-1.85-1.23-2.47-1.85l-.62-.62-1.85-1.23c-1.23-.62-2.46-1.85-3.7-2.47l-.61-.61C87.74,89.89,77.87,76.94,73.56,62.14c-4.32-15.42-3.7-33.31,4.93-47.49Zm45.64-16c-7.41,11.1-8,24.66-3.09,36.38,5.55,13,16.65,22.82,29.6,27.76.62,0,1.24.61,1.85.61h.62c.62,0,1.23.62,2.47.62,35.77,6.78,45.64-18.5,48.1-22.2-8.63,12.33-22.82,15.41-40.7,11.1-1.23-.62-3.08-.62-4.32-1.24a40.45,40.45,0,0,1-4.93-1.85,25.76,25.76,0,0,1-8.64-5.55c-16-11.71-25.28-34.53-15.41-53.65Z" transform="translate(-1.25 -5.4)"/></svg>