<svg id="Layer_1" data-name="Layer 1" xmlns="http://www.w3.org/2000/svg" viewBox="0 0 199.53 194.52"><defs><style>.cls-1{fill:#010101;}</style></defs><path class="cls-1" d="M.24,2.74V197.26H199.76V2.74ZM8.53,11h182.9V188.92H8.53ZM48.48,48.28c0-.58,1.15-1,1.86-1,5.36-.26,13.21-.44,21.42-.44,23,0,32,12.64,32,28.82,0,21.15-15.34,30.2-34.1,30.2-3.19,0-4.26-.18-6.47-.18v32c0,.66-.27,1-.93,1H49.41c-.67,0-.93-.26-.93-.93V48.28ZM63.2,92.44c1.9.13,3.46.13,6.74.13,9.71,0,18.89-3.46,18.89-16.58,0-10.55-6.57-15.92-17.65-15.92-3.28,0-6.43.13-7.94.27v32.1Zm71.56-9.89c-6.6,0-8.78,3.33-8.78,6,0,3,1.51,5.06,10.29,9.62,13,6.34,17.16,12.33,17.16,21.29,0,13.3-10.15,20.44-23.86,20.44-7.27,0-13.47-1.51-17-3.59-.53-.27-.67-.67-.67-1.38V122.77c0-.8.4-1.11.93-.67A30.35,30.35,0,0,0,129.53,127c6.61,0,9.31-2.75,9.31-6.48,0-3-1.9-5.63-10.24-10-11.84-5.63-16.76-11.39-16.76-21,0-10.73,8.38-19.59,22.88-19.59,7.14,0,12.19,1.1,14.94,2.3a1.84,1.84,0,0,1,.8,1.64v11.4c0,.66-.44,1.11-1.24.8a30,30,0,0,0-14.46-3.51Z" transform="translate(-0.24 -2.74)"/></svg>