<svg id="Layer_1" data-name="Layer 1" xmlns="http://www.w3.org/2000/svg" viewBox="0 0 198.47 173.67"><defs><style>.cls-1{fill:#010101;}</style></defs><path class="cls-1" d="M162.88,69.44q-3.15-1-6.28-2c.34-1.44.66-2.87,1-4.31,4.76-23.1,1.62-41.67-9-47.79-10.19-5.86-26.82.23-43.65,14.88-1.67,1.44-3.29,3-4.84,4.46-1.05-1-2.14-2-3.22-3C79.26,16.07,61.58,9.48,51,15.64,40.85,21.53,37.82,39,42.09,60.88c.42,2.17.89,4.3,1.43,6.47-2.48.7-4.92,1.47-7.21,2.29C15.61,76.81.76,88.13.76,99.84c0,12.09,15.82,24.22,37.33,31.59,1.75.58,3.49,1.16,5.28,1.67-.59,2.32-1.09,4.61-1.56,7-4.07,21.52-.89,38.57,9.27,44.43,10.47,6,28.06-.16,45.2-15.16,1.36-1.2,2.71-2.44,4.07-3.76,1.7,1.67,3.49,3.26,5.27,4.81,16.59,14.26,33,20,43.11,14.18,10.46-6,13.87-24.38,9.46-46.71-.35-1.7-.74-3.45-1.17-5.23,1.24-.35,2.44-.74,3.65-1.12,22.36-7.41,38.57-19.39,38.57-31.67,0-11.75-15.28-23.15-36.36-30.4ZM110.43,36.53c14.42-12.56,27.87-17.48,34-14,6.56,3.76,9.07,19,5,38.92-.28,1.32-.55,2.59-.9,3.87a200.37,200.37,0,0,0-26.08-4.11,195.56,195.56,0,0,0-16.52-20.58C107.4,39.25,108.88,37.89,110.43,36.53ZM65.58,120c2,3.38,4,6.75,6.12,10a172.59,172.59,0,0,1-18-2.9A178.69,178.69,0,0,1,60,109.84c1.79,3.41,3.61,6.78,5.55,10.11ZM53.83,73.32c5.58-1.24,11.51-2.25,17.68-3-2.06,3.21-4.07,6.51-6,9.84S61.78,86.81,60,90.22c-2.44-5.77-4.49-11.43-6.2-16.9ZM64.45,100c2.56-5.35,5.35-10.58,8.3-15.74s6.12-10.16,9.46-15.08C88,68.79,94,68.55,100,68.55s12,.24,17.79.66q5,7.33,9.42,15t8.41,15.66q-3.88,8-8.37,15.82c-2.94,5.16-6.08,10.16-9.38,15.12-5.78.42-11.78.62-17.87.62s-12-.2-17.68-.54q-5.05-7.39-9.53-15.12c-3-5.16-5.74-10.39-8.34-15.74Zm70,19.85c2-3.41,3.84-6.86,5.66-10.35a180.55,180.55,0,0,1,6.55,17.17,169.87,169.87,0,0,1-18.22,3.1c2.1-3.26,4.07-6.59,6-9.92ZM140,90.22c-1.82-3.41-3.68-6.82-5.62-10.15s-3.87-6.56-5.93-9.77a176.55,176.55,0,0,1,17.79,3.1A168.63,168.63,0,0,1,140,90.22Zm-40-43.61a168.57,168.57,0,0,1,11.47,13.88c-7.67-.35-15.39-.35-23.06,0C92.29,55.49,96.2,50.84,100.08,46.61Zm-45-23.76c6.51-3.8,21,1.63,36.21,15.12,1,.85,1.93,1.78,2.94,2.71A196.58,196.58,0,0,0,77.63,61.26a205.25,205.25,0,0,0-26,4c-.5-2-.93-4-1.35-6C46.58,40.53,49,26.38,55.11,22.85ZM45.61,125c-1.62-.46-3.21-1-4.8-1.51-8.26-2.6-17.64-6.71-24.42-12.09A17.37,17.37,0,0,1,9.1,99.84c0-7.1,12.25-16.17,29.92-22.33,2.21-.78,4.46-1.48,6.71-2.13A205.93,205.93,0,0,0,55.23,100,212.81,212.81,0,0,0,45.61,125Zm45.2,38A71,71,0,0,1,69,176.71a17.19,17.19,0,0,1-13.68.5C49.1,173.64,46.54,160,50,141.55c.43-2.17.89-4.35,1.44-6.48a194,194,0,0,0,26.32,3.8,204.34,204.34,0,0,0,16.74,20.7c-1.24,1.2-2.48,2.37-3.72,3.45Zm9.5-9.42c-4-4.26-7.91-9-11.75-14.07,3.73.16,7.56.23,11.44.23s7.91-.07,11.78-.27A165.37,165.37,0,0,1,100.31,153.6ZM151,165.23a17.22,17.22,0,0,1-6.4,12.13c-6.16,3.57-19.31-1.08-33.49-13.25-1.63-1.4-3.26-2.91-4.93-4.46a191.35,191.35,0,0,0,16.36-20.78A191.09,191.09,0,0,0,149,134.8c.39,1.59.74,3.18,1,4.73a70.66,70.66,0,0,1,1,25.7ZM158,123.56c-1.09.35-2.17.7-3.29,1a197.34,197.34,0,0,0-9.89-24.73,196.68,196.68,0,0,0,9.5-24.39c2,.58,4,1.2,5.81,1.82,18.07,6.21,30.74,15.43,30.74,22.49C190.9,107.36,177.37,117.16,158,123.56Zm-58-5.82A17.75,17.75,0,1,0,82.25,100,17.74,17.74,0,0,0,100,117.74Z" transform="translate(-0.76 -13.16)"/></svg>