<svg id="Layer_1" data-name="Layer 1" xmlns="http://www.w3.org/2000/svg" viewBox="0 0 195.66 117.4"><path d="M100,41.3q-39.14,0-48.91,39.13Q65.76,60.87,85.33,65.76C92.77,67.62,98.09,73,104,79c9.59,9.73,20.69,21,44.93,21q39.14,0,48.92-39.13-14.67,19.56-34.24,14.67c-7.44-1.86-12.76-7.26-18.65-13.23C135.35,52.57,124.25,41.3,100,41.3ZM51.09,100Q12,100,2.17,139.13q14.67-19.56,34.24-14.67c7.44,1.86,12.76,7.26,18.65,13.23,9.59,9.74,20.69,21,44.94,21q39.13,0,48.91-39.13-14.67,19.56-34.24,14.67C107.23,132.38,101.91,127,96,121,86.43,111.27,75.33,100,51.09,100Z" transform="translate(-2.17 -41.3)"/></svg>