<svg id="Layer_1" data-name="Layer 1" xmlns="http://www.w3.org/2000/svg" viewBox="0 0 198.13 198.13"><defs><style>.cls-1{fill:#010101;}</style></defs><path class="cls-1" d="M22.39,65.41l40.54,111a85,85,0,0,1-40.54-111Zm135,30.32c0-10.51-3.75-17.78-7-23.45-4.31-7-8.35-12.94-8.35-19.93,0-7.83,5.91-15.1,14.26-15.1.36,0,.72,0,1.12.08A85,85,0,0,0,29,53.3c2,.08,3.87.12,5.47.12,8.87,0,22.65-1.07,22.65-1.07,4.59-.28,5.11,6.47.56,7,0,0-4.6.52-9.71.79l31,92L97.52,96.4,84.3,60.13c-4.59-.27-8.91-.79-8.91-.79-4.59-.28-4-7.27.52-7,0,0,14,1.07,22.37,1.07,8.87,0,22.65-1.07,22.65-1.07,4.59-.28,5.11,6.47.56,7,0,0-4.59.52-9.71.79l30.72,91.36L151,123.17c3.6-11.75,6.39-20.17,6.39-27.44Zm-55.88,11.7L76,181.53A85.34,85.34,0,0,0,100,185a84.36,84.36,0,0,0,28.2-4.83,6.37,6.37,0,0,1-.6-1.16Zm73.1-48.21a66,66,0,0,1,.56,8.74c0,8.63-1.6,18.3-6.47,30.44l-26,75.06A85.08,85.08,0,0,0,174.58,59.22ZM199.06,100A99.06,99.06,0,1,1,100,.94,99.17,99.17,0,0,1,199.06,100Zm-4.55,0A94.51,94.51,0,1,0,100,194.51,94.62,94.62,0,0,0,194.51,100Z" transform="translate(-0.94 -0.94)"/></svg>